<svg id="Layer_1" data-name="Layer 1" xmlns="http://www.w3.org/2000/svg" xmlns:xlink="http://www.w3.org/1999/xlink" viewBox="0 0 485.3013 196.1857"><defs><style>.cls-1{fill:url(#linear-gradient);}</style><linearGradient id="linear-gradient" x1="109.7076" y1="-23.9488" x2="370.2913" y2="236.6348" gradientUnits="userSpaceOnUse"><stop offset="0" stop-color="#00bca1"/><stop offset="0.4901" stop-color="#bffff3"/><stop offset="0.5134" stop-color="#50ffd9"/><stop offset="1" stop-color="#004555"/></linearGradient></defs><path class="cls-1" d="M20.1207,128.2118c0,6.2629-9.2285,6.2629-9.2285,0V76.955c0-6.2629,9.2285-6.2629,9.2285,0Zm22.91,2.3076,50.433,49.939c4.2852,4.4493-2.3076,11.0421-6.5928,6.7569L33.1422,133.8167a5.234,5.234,0,0,1,0-6.7586L86.8707,73.8235c4.2852-4.4493,10.878,2.1435,6.5928,6.5928ZM298.3111,82.23V184.0838a4.78,4.78,0,1,1-9.56,0V82.23H251.8334a4.5866,4.5866,0,0,1-4.7792-4.781,4.7829,4.7829,0,0,1,4.7792-4.7792h46.4721ZM142.5883,182.919a62.634,62.634,0,0,1-22.02-22.02,58.5372,58.5372,0,0,1-8.23-30.5882,4.9808,4.9808,0,0,1,1.5271-3.6489,5.2755,5.2755,0,0,1,7.4245,0,4.9174,4.9174,0,0,1,1.5694,3.6489,48.5985,48.5985,0,0,0,6.7894,25.3277,51.428,51.428,0,0,0,18.2005,18.2005,50.4793,50.4793,0,0,0,50.5709,0,51.464,51.464,0,0,0,18.2024-18.2005,50.4915,50.4915,0,0,0,0-50.5709A51.5,51.5,0,0,0,198.42,86.8651a48.4652,48.4652,0,0,0-25.2432-6.7875,5.0084,5.0084,0,0,1-3.7334-1.5694,5.2394,5.2394,0,0,1,3.7334-8.9515,58.4119,58.4119,0,0,1,30.5055,8.23A62.6845,62.6845,0,0,1,225.7,99.8052a60.8032,60.8032,0,0,1,0,61.0937,62.6593,62.6593,0,0,1-22.0183,22.02,60.8025,60.8025,0,0,1-61.0937,0Zm301.57-105.1321a62.633,62.633,0,0,1,22.02,22.02,58.5374,58.5374,0,0,1,8.23,30.5881,4.98,4.98,0,0,1-1.5271,3.6489,5.2755,5.2755,0,0,1-7.4245,0,4.9173,4.9173,0,0,1-1.5693-3.6489,48.5987,48.5987,0,0,0-6.7894-25.3277,51.43,51.43,0,0,0-18.2-18.2,50.4793,50.4793,0,0,0-50.5709,0,51.4648,51.4648,0,0,0-18.2024,18.2,50.4915,50.4915,0,0,0,0,50.5709,51.5,51.5,0,0,0,18.2024,18.2024,48.4652,48.4652,0,0,0,25.2432,6.7875,5.0088,5.0088,0,0,1,3.7334,1.5694,5.2395,5.2395,0,0,1-3.7334,8.9516,58.412,58.412,0,0,1-30.5055-8.23,62.6829,62.6829,0,0,1-22.0183-22.0183,60.8024,60.8024,0,0,1,0-61.0936,62.6579,62.6579,0,0,1,22.0183-22.02,60.803,60.803,0,0,1,61.0936,0ZM313.8976,77.469h0a4.8173,4.8173,0,0,1,4.8173-4.8173h16.1782c6.5385,0,6.5385,9.6347,0,9.6347H318.7149A4.8173,4.8173,0,0,1,313.8976,77.469ZM98.1111,42.9844A18.8045,18.8045,0,0,1,84.695,37.4277a18.5674,18.5674,0,0,1-5.5591-13.4161,25.0772,25.0772,0,0,1,.9277-6.0206,16.9372,16.9372,0,0,1,4.6314-7.3979,19.0376,19.0376,0,0,1,8.5992-4.9216,18.822,18.822,0,0,1,4.8169-.6351,24.6582,24.6582,0,0,1,6.0063.94,17.2006,17.2006,0,0,1,7.3836,4.6171A1.6426,1.6426,0,0,1,110.364,13.4a1.7018,1.7018,0,0,1-1.1656-.4781A15.2289,15.2289,0,0,0,98.1111,8.319a20.9222,20.9222,0,0,0-4.9882.766,13.96,13.96,0,0,0-6.1253,3.8369,15.2679,15.2679,0,0,0-4.579,11.09,21.1367,21.1367,0,0,0,.754,4.9739,14.0062,14.0062,0,0,0,3.825,6.14,15.7388,15.7388,0,0,0,21.7251.45V28.6692a1.6382,1.6382,0,0,1,2.7926-1.1656,1.5662,1.5662,0,0,1,.4876,1.1656v7.5929l-.0261.2664-.0262.0524v.0785l-.0262.0261-.0261.1594-.0524.107v.0262H111.82l-.0547.1308a.0238.0238,0,0,0-.0262.0262.0836.0836,0,0,1-.0262.0547l-.0523.0523v.0262a.3817.3817,0,0,0-.0523.0666.4479.4479,0,0,1-.1071.0928A18.7769,18.7769,0,0,1,98.1111,42.9844Zm48.6666-1.0062L133.9944,10.99,121.24,41.9782a1.5262,1.5262,0,0,1-1.482,1.0062,1.8007,1.8007,0,0,1-.6613-.1332,1.4956,1.4956,0,0,1-1.0062-1.4819,1.6457,1.6457,0,0,1,.1332-.6352l14.263-34.6653a1.6477,1.6477,0,0,1,1.5081-1.0324,1.6663,1.6663,0,0,1,1.5367,1.0324L149.794,40.7341a1.6457,1.6457,0,0,1,.1332.6352,1.4685,1.4685,0,0,1-1.0324,1.4819,1.4267,1.4267,0,0,1-.6089.1332A1.6428,1.6428,0,0,1,146.7777,41.9782ZM159.48,42.9844a1.6244,1.6244,0,0,1-1.6413-1.6413V6.6777a1.6026,1.6026,0,0,1,.4757-1.1513,1.6463,1.6463,0,0,1,2.8046,1.1513V39.7041h15.9851a1.5574,1.5574,0,0,1,1.1632.4877,1.6425,1.6425,0,0,1,0,2.3169,1.5826,1.5826,0,0,1-1.1632.4757Zm28.8446,0a1.6244,1.6244,0,0,1-1.6413-1.6413V6.6777a1.6026,1.6026,0,0,1,.4757-1.1513,1.6463,1.6463,0,0,1,2.8046,1.1513V39.7041h15.9851a1.5574,1.5574,0,0,1,1.1632.4877,1.6425,1.6425,0,0,1,0,2.3169,1.5826,1.5826,0,0,1-1.1632.4757ZM236.9368,8.319H216.639a1.6326,1.6326,0,0,1-1.6414-1.6413,1.595,1.595,0,0,1,.4782-1.1513,1.5593,1.5593,0,0,1,1.1632-.49h20.2978a1.5326,1.5326,0,0,1,1.137.49,1.5929,1.5929,0,0,1,.4757,1.1513,1.5738,1.5738,0,0,1-.4757,1.1632A1.5478,1.5478,0,0,1,236.9368,8.319Zm0,17.3315H216.639a1.6286,1.6286,0,0,1-1.6414-1.6389,1.591,1.591,0,0,1,.4782-1.1513,1.5505,1.5505,0,0,1,1.1632-.49h20.2978a1.5237,1.5237,0,0,1,1.137.49,1.6455,1.6455,0,0,1,0,2.3145A1.5458,1.5458,0,0,1,236.9368,25.6505Zm0,17.3339H216.639a1.6286,1.6286,0,0,1-1.6414-1.6413,1.599,1.599,0,0,1,.4782-1.1513,1.5573,1.5573,0,0,1,1.1632-.4877h20.2978a1.53,1.53,0,0,1,1.137.4877,1.6484,1.6484,0,0,1,0,2.3169A1.5547,1.5547,0,0,1,236.9368,42.9844Zm13.309,0a1.6244,1.6244,0,0,1-1.6413-1.6413V24.0116A1.5986,1.5986,0,0,1,249.08,22.86a1.56,1.56,0,0,1,1.1656-.49h11.6963a6.96,6.96,0,0,0,6.96-6.9341,6.8969,6.8969,0,0,0-2.0386-5.081,6.7061,6.7061,0,0,0-4.9216-2.0362H250.2458a1.6284,1.6284,0,0,1-1.6413-1.6413,1.6026,1.6026,0,0,1,.4757-1.1513,1.5685,1.5685,0,0,1,1.1656-.49h11.6963a9.8216,9.8216,0,0,1,7.2242,3.0043,9.8555,9.8555,0,0,1,2.99,7.21,10.0614,10.0614,0,0,1-2.99,7.41,9.845,9.845,0,0,1-7.2242,2.99H251.8848V41.3431a1.5664,1.5664,0,0,1-.4877,1.1656A1.606,1.606,0,0,1,250.2458,42.9844Zm19.7935,0a1.668,1.668,0,0,1-1.4819-.9515l-4.9217-10.5854a1.7946,1.7946,0,0,1-.1593-.716,1.55,1.55,0,0,1,.9253-1.4558,1.7134,1.7134,0,0,1,.716-.157A1.5965,1.5965,0,0,1,266.6,30.07l4.9217,10.5854a1.6473,1.6473,0,0,1,.1593.6875,1.562,1.562,0,0,1-.9538,1.482A1.6111,1.6111,0,0,1,270.0393,42.9844Zm21.2231-17.3339a1.6581,1.6581,0,0,1-1.3487-.7136L278.27,7.603a1.6779,1.6779,0,0,1-.2925-.9253,1.5767,1.5767,0,0,1,.716-1.3511,1.73,1.73,0,0,1,.9515-.29,3.4572,3.4572,0,0,1,.53.0785,1.4213,1.4213,0,0,1,.7945.6637l10.2928,15.2953L301.5838,5.7786a1.532,1.532,0,0,1,1.3226-.7422,1.8213,1.8213,0,0,1,.9515.29,1.5476,1.5476,0,0,1,.716,1.3249,1.8038,1.8038,0,0,1-.2926.9515L292.64,24.9369A1.6863,1.6863,0,0,1,291.2624,25.6505Zm0,17.3339a1.5547,1.5547,0,0,1-1.137-.4757,1.5847,1.5847,0,0,1-.4781-1.1656V30.8647a1.5951,1.5951,0,0,1,.4781-1.1513,1.5326,1.5326,0,0,1,1.137-.49,1.5683,1.5683,0,0,1,1.1656.49,1.6025,1.6025,0,0,1,.4758,1.1513V41.3431a1.6246,1.6246,0,0,1-1.6414,1.6413Zm41.4805-2.5666a19.53,19.53,0,0,1-6.865-6.8675,18.2457,18.2457,0,0,1-2.5691-9.5387,1.5531,1.5531,0,0,1,.4781-1.1394,1.6453,1.6453,0,0,1,2.3146,0,1.5378,1.5378,0,0,1,.49,1.1394,15.1378,15.1378,0,0,0,2.1171,7.8974,16.0623,16.0623,0,0,0,5.6756,5.6781,15.7493,15.7493,0,0,0,15.7735,0,16.0818,16.0818,0,0,0,5.6756-5.6781,15.16,15.16,0,0,0,2.1171-7.8974,15.1241,15.1241,0,0,0-2.1171-7.8736,16.0751,16.0751,0,0,0-5.6756-5.6757,15.1022,15.1022,0,0,0-7.8737-2.1171,1.5685,1.5685,0,0,1-1.1656-.49,1.6342,1.6342,0,0,1,1.1656-2.7926,18.2163,18.2163,0,0,1,9.5126,2.5666,19.5572,19.5572,0,0,1,6.8674,6.8674,18.2312,18.2312,0,0,1,2.5667,9.515A18.2662,18.2662,0,0,1,358.664,33.55a19.537,19.537,0,0,1-6.8674,6.8675,18.9644,18.9644,0,0,1-19.0537,0ZM391.1077,8.319H370.8123a1.6286,1.6286,0,0,1-1.6414-1.6413,1.6023,1.6023,0,0,1,.4758-1.1513,1.5683,1.5683,0,0,1,1.1656-.49h20.2954a1.5377,1.5377,0,0,1,1.1394.49,1.6022,1.6022,0,0,1,.4757,1.1513,1.5826,1.5826,0,0,1-.4757,1.1632A1.5531,1.5531,0,0,1,391.1077,8.319ZM370.8123,42.9844a1.6246,1.6246,0,0,1-1.6414-1.6413V24.0116a1.5983,1.5983,0,0,1,.4758-1.1513,1.56,1.56,0,0,1,1.1656-.49h20.2954a1.5289,1.5289,0,0,1,1.1394.49,1.6455,1.6455,0,0,1,0,2.3145,1.5512,1.5512,0,0,1-1.1394.4757H372.4512V41.3431a1.5663,1.5663,0,0,1-.4876,1.1656A1.6064,1.6064,0,0,1,370.8123,42.9844Z"/></svg>