<?xml version="1.0" encoding="UTF-8"?><svg xmlns="http://www.w3.org/2000/svg" xmlns:xlink="http://www.w3.org/1999/xlink" viewBox="0 0 457.6075 171.7403"><defs><style>.e{fill:url(#d);}</style><linearGradient id="d" x1="0" y1="85.8702" x2="457.6075" y2="85.8702" gradientTransform="matrix(1, 0, 0, 1, 0, 0)" gradientUnits="userSpaceOnUse"><stop offset="0" stop-color="#007369"/><stop offset=".4893" stop-color="#bfe6d9"/><stop offset=".5437" stop-color="#02a676"/><stop offset=".9994" stop-color="#012626"/></linearGradient></defs><g id="a"/><g id="b"><g id="c"><path class="e" d="M9.1108,109.6053c0,6.183-9.1108,6.183-9.1108,0V59.0019c0-6.183,9.1108-6.183,9.1108,0v50.6034Zm22.6177,2.2781l49.79,49.3023c4.2306,4.3926-2.2781,10.9013-6.5087,6.6707L21.9663,115.1387c-1.6285-1.7905-1.6285-4.882,0-6.6725l53.0435-52.5558c4.2306-4.3926,10.7393,2.1162,6.5087,6.5087L31.7286,111.8834Zm252.026-47.6739v100.5554c0,2.7676-1.9524,4.72-4.7183,4.72s-4.72-1.9524-4.72-4.72V64.2096h-36.4468c-2.7658,0-4.7183-1.9524-4.7183-4.72,0-2.6021,2.1144-4.7183,4.7183-4.7183h45.8797m-153.732,108.8437c-9.0767-5.4163-16.3231-12.6627-21.7394-21.7394-5.4181-9.0748-8.1253-19.1409-8.1253-30.1982,0-1.3953,.5019-2.5967,1.5076-3.6024,1.0057-1.0057,2.2325-1.5076,3.6858-1.5076,1.3953,0,2.6094,.5019,3.6441,1.5076,1.0329,1.0057,1.5493,2.2071,1.5493,3.6024,0,9.16,2.2343,17.4937,6.7028,25.0048,4.4668,7.5128,10.4556,13.5017,17.9685,17.9685,7.511,4.4686,15.8447,6.7028,25.0048,6.7028,9.102,0,17.4104-2.2343,24.9214-6.7028,7.511-4.4668,13.5017-10.4556,17.9703-17.9685,4.4668-7.511,6.701-15.8447,6.701-25.0048,0-9.102-2.2343-17.4104-6.701-24.9214-4.4686-7.511-10.4593-13.5017-17.9703-17.9703-7.511-4.4668-15.8194-6.701-24.9214-6.701-1.4533,0-2.6801-.5164-3.6858-1.5493s-1.5076-2.247-1.5076-3.6441c0-1.4515,.5019-2.6819,1.5076-3.6858,1.0057-1.0057,2.2325-1.5076,3.6858-1.5076,11.0011,0,21.04,2.709,30.1166,8.1253,9.0748,5.4181,16.3195,12.6627,21.7376,21.7376,5.4163,9.0767,8.1253,19.1137,8.1253,30.1166,0,11.0573-2.709,21.1233-8.1253,30.1982-5.4181,9.0767-12.6627,16.3231-21.7376,21.7394-9.0767,5.4163-19.1155,8.1253-30.1166,8.1253-11.0573,0-21.1233-2.709-30.1982-8.1253ZM427.7428,59.8232c9.0767,5.4163,16.3231,12.6627,21.7394,21.7394,5.4181,9.0748,8.1253,19.1409,8.1253,30.1982,0,1.3953-.5019,2.5967-1.5076,3.6024-1.0057,1.0057-2.2325,1.5076-3.6858,1.5076-1.3953,0-2.6094-.5019-3.6441-1.5076-1.0329-1.0057-1.5493-2.2071-1.5493-3.6024,0-9.16-2.2343-17.4937-6.7028-25.0048-4.4668-7.5128-10.4556-13.5017-17.9685-17.9685-7.511-4.4686-15.8447-6.7028-25.0048-6.7028-9.102,0-17.4104,2.2343-24.9214,6.7028-7.511,4.4668-13.5017,10.4556-17.9703,17.9685-4.4668,7.511-6.701,15.8447-6.701,25.0048,0,9.102,2.2343,17.4104,6.701,24.9214,4.4686,7.511,10.4593,13.5017,17.9703,17.9703,7.511,4.4668,15.8194,6.701,24.9214,6.701,1.4533,0,2.6801,.5164,3.6858,1.5493,1.0057,1.0329,1.5076,2.247,1.5076,3.6441,0,1.4515-.5019,2.6819-1.5076,3.6858-1.0057,1.0057-2.2325,1.5076-3.6858,1.5076-11.0011,0-21.04-2.709-30.1166-8.1253-9.0748-5.4181-16.3195-12.6627-21.7376-21.7376-5.4163-9.0767-8.1253-19.1137-8.1253-30.1166,0-11.0573,2.709-21.1233,8.1253-30.1982,5.4181-9.0767,12.6627-16.3231,21.7376-21.7394,9.0767-5.4163,19.1155-8.1253,30.1166-8.1253,11.0573,0,21.1233,2.709,30.1982,8.1253Zm-128.6005-.3138h0c0-2.6266,2.1293-4.7559,4.7559-4.7559h15.9719c6.4552,0,6.4552,9.5119,0,9.5119h-15.9719c-2.6266,0-4.7559-2.1293-4.7559-4.7559Zm-168.142-22.6722l-16.5093-21.0841-16.4859,21.0841c-.3664,.418-.7938,.627-1.2775,.627-.1785,0-.3523-.0258-.526-.0775-.728-.3311-1.0944-.8454-1.0944-1.5429V1.6204c0-.4345,.155-.8149,.4697-1.1366s.6951-.4838,1.1507-.4838c.4321,0,.8126,.162,1.1366,.4838,.3194,.3217,.4791,.7022,.4791,1.1366V31.1681l14.8655-19.0456c.3664-.4016,.7938-.6012,1.2822-.6012,.5073,0,.93,.1996,1.2822,.6012l17.7634,22.7303c.2254,.3123,.3382,.6435,.3382,.991,0,.5049-.2067,.9323-.6247,1.2799-.3147,.2278-.6388,.3405-.9675,.3405-.5213,0-.9488-.209-1.2822-.627Zm20.0273-1.9069c-2.8322-1.6885-5.0914-3.95-6.7775-6.7799-1.6909-2.8298-2.5363-5.9697-2.5363-9.4171,0-.4368,.155-.8102,.4697-1.1249,.3147-.3123,.6951-.4697,1.1507-.4697,.4368,0,.8126,.1573,1.1366,.4697,.3194,.3147,.4838,.6881,.4838,1.1249,0,2.8557,.6951,5.4554,2.0901,7.7967,1.3903,2.3437,3.2596,4.2107,5.6033,5.6057,2.3437,1.3926,4.9411,2.0901,7.7967,2.0901,2.8416,0,5.4295-.6975,7.7732-2.0901,2.3437-1.395,4.2084-3.2619,5.6033-5.6057,1.395-2.3414,2.0901-4.9411,2.0901-7.7967,0-2.8392-.6951-5.4295-2.0901-7.7732-1.395-2.3414-3.2596-4.2107-5.6033-5.6033-2.3437-1.395-4.9317-2.0901-7.7732-2.0901-.4509,0-.836-.162-1.1507-.4838-.31-.3217-.4697-.7022-.4697-1.1366,0-.4532,.1597-.836,.4697-1.1507,.3147-.3123,.6998-.4697,1.1507-.4697,3.4334,0,6.5615,.8454,9.3937,2.5339,2.8275,1.6909,5.0914,3.95,6.7775,6.7799,1.6909,2.8298,2.5363,5.9626,2.5363,9.3937,0,3.4475-.8454,6.5873-2.5363,9.4171-1.6862,2.8298-3.95,5.0914-6.7775,6.7799-2.8322,1.6885-5.9603,2.5339-9.3937,2.5339-3.4475,0-6.585-.8454-9.4171-2.5339Zm37.584,2.5339c-.4556,0-.836-.1573-1.1507-.4697-.3147-.3147-.4697-.6975-.4697-1.1507V18.7333c0-.4368,.155-.8149,.4697-1.1366,.3147-.3241,.6951-.4838,1.1507-.4838h11.5448c1.8975,0,3.5179-.6716,4.8612-2.0126,1.3386-1.3409,2.0102-2.952,2.0102-4.833,0-2.0032-.6716-3.6753-2.0102-5.0162-1.3433-1.3409-2.9637-2.0102-4.8612-2.0102h-11.5448c-.4556,0-.836-.1573-1.1507-.472-.3147-.3123-.4697-.6951-.4697-1.1484,0-.4345,.155-.8149,.4697-1.1366s.6951-.4838,1.1507-.4838h11.5448c2.7852,0,5.1665,.9887,7.1345,2.966,1.968,1.9774,2.9496,4.3493,2.9496,7.118,0,2.9097-.9816,5.3473-2.9496,7.3153-1.968,1.968-4.3493,2.952-7.1345,2.952h-9.9291v15.4925c0,.4532-.1597,.836-.4791,1.1507-.3241,.3123-.7045,.4697-1.1366,.4697Zm19.5388,0c-.6106,0-1.0944-.3123-1.4607-.9394l-4.8612-10.4504c-.1033-.2442-.155-.4791-.155-.7069,0-.6435,.3053-1.1225,.9112-1.4372,.2301-.1033,.465-.155,.7092-.155,.6435,0,1.1319,.3123,1.4607,.9394l4.8612,10.4504c.1033,.2254,.155,.4532,.155,.6787,0,.6623-.3147,1.1507-.9394,1.4631-.2254,.1057-.4556,.1573-.681,.1573Zm12.0708,0c-.4509,0-.836-.1573-1.1507-.4697-.31-.3147-.4697-.6975-.4697-1.1507V1.6204c0-.4345,.1597-.8149,.4697-1.1366,.3147-.3217,.6998-.4838,1.1507-.4838,.4368,0,.8126,.162,1.1366,.4838s.4838,.7022,.4838,1.1366V34.2258h15.7813c.4509,0,.836,.1597,1.146,.4814,.3147,.3241,.4744,.7022,.4744,1.1366,0,.4532-.1597,.836-.4744,1.1507-.31,.3123-.6951,.4697-1.146,.4697h-17.4017Zm28.4769,0c-.4509,0-.836-.1573-1.1507-.4697-.31-.3147-.4697-.6975-.4697-1.1507,0-.4345,.1597-.8126,.4697-1.1366,.3147-.3217,.6998-.4814,1.1507-.4814h10.8403c2.8228,0,5.392-.6881,7.7075-2.0643,2.3202-1.3762,4.1708-3.2267,5.5516-5.5516,1.3856-2.3249,2.0807-5.0045,2.0807-8.0339,0-2.8228-.6951-5.392-2.0807-7.7075-1.3809-2.3155-3.2314-4.1661-5.5516-5.5516-2.3155-1.3856-4.8847-2.076-7.7075-2.076h-10.8403c-.4509,0-.836-.1573-1.1507-.472-.31-.3123-.4697-.6951-.4697-1.1484,0-.4345,.1597-.8149,.4697-1.1366,.3147-.3217,.6998-.4838,1.1507-.4838h10.8403c3.4146,0,6.5239,.836,9.3279,2.5081,2.804,1.6721,5.0444,3.9148,6.7165,6.7282,1.6721,2.8134,2.5081,6.0378,2.5081,9.6778,0,3.4146-.836,6.5239-2.5081,9.3279-1.6721,2.804-3.9125,5.042-6.7165,6.7141-2.804,1.6721-5.9133,2.5081-9.3279,2.5081h-10.8403Zm57.2027-2.5339c-2.8322-1.6885-5.0914-3.95-6.7775-6.7799-1.6909-2.8298-2.5363-5.9697-2.5363-9.4171,0-.4368,.155-.8102,.4697-1.1249,.3147-.3123,.6951-.4697,1.1507-.4697,.4368,0,.8126,.1573,1.1366,.4697,.3194,.3147,.4838,.6881,.4838,1.1249,0,2.8557,.6951,5.4554,2.0901,7.7967,1.3903,2.3437,3.2596,4.2107,5.6033,5.6057,2.3437,1.3926,4.9411,2.0901,7.7967,2.0901,2.8416,0,5.4295-.6975,7.7732-2.0901,2.3437-1.395,4.2084-3.2619,5.6033-5.6057,1.395-2.3414,2.0901-4.9411,2.0901-7.7967,0-2.8392-.6951-5.4295-2.0901-7.7732-1.395-2.3414-3.2596-4.2107-5.6033-5.6033-2.3437-1.395-4.9317-2.0901-7.7732-2.0901-.4509,0-.836-.162-1.1507-.4838-.31-.3217-.4697-.7022-.4697-1.1366,0-.4532,.1597-.836,.4697-1.1507,.3147-.3123,.6998-.4697,1.1507-.4697,3.4334,0,6.5615,.8454,9.3937,2.5339,2.8275,1.6909,5.0914,3.95,6.7775,6.7799,1.6909,2.8298,2.5363,5.9626,2.5363,9.3937,0,3.4475-.8454,6.5873-2.5363,9.4171-1.6862,2.8298-3.95,5.0914-6.7775,6.7799-2.8322,1.6885-5.9603,2.5339-9.3937,2.5339-3.4475,0-6.585-.8454-9.4171-2.5339ZM363.5167,3.2408h-20.0367c-.4509,0-.836-.1573-1.1507-.472-.31-.3123-.4697-.6951-.4697-1.1484,0-.4345,.1597-.8149,.4697-1.1366,.3147-.3217,.6998-.4838,1.1507-.4838h20.0367c.4368,0,.8126,.162,1.1272,.4838,.31,.3217,.4697,.7022,.4697,1.1366,0,.4532-.1597,.836-.4697,1.1484-.3147,.3147-.6904,.472-1.1272,.472Zm-20.0367,34.2234c-.4509,0-.836-.1573-1.1507-.4697-.31-.3147-.4697-.6975-.4697-1.1507V18.7333c0-.4368,.1597-.8149,.4697-1.1366,.3147-.3241,.6998-.4838,1.1507-.4838h20.0367c.4368,0,.8126,.1597,1.1272,.4838,.31,.3217,.4697,.6998,.4697,1.1366,0,.4509-.1597,.836-.4697,1.1484-.3147,.3147-.6904,.4697-1.1272,.4697h-18.4163v15.4925c0,.4532-.1597,.836-.4838,1.1507-.3241,.3123-.6998,.4697-1.1366,.4697Z"/></g></g></svg>