<svg width="38" height="39" viewBox="0 0 38 39" fill="none" xmlns="http://www.w3.org/2000/svg">
<path d="M29.698 19.4943C30.0553 19.7039 30.5148 19.5842 30.7245 19.227C30.9341 18.8697 30.8144 18.4102 30.4571 18.2006L29.698 19.4943ZM10.202 7.18619L9.81492 7.82865L9.82246 7.83307L10.202 7.18619ZM8.58821 7.22299L8.17228 6.59889L8.17228 6.59889L8.58821 7.22299ZM7.93308 8.69827L7.19118 8.80822C7.19851 8.85772 7.21079 8.90637 7.22781 8.95342L7.93308 8.69827ZM10.8996 19.1026C11.0405 19.4921 11.4705 19.6936 11.86 19.5527C12.2495 19.4118 12.451 18.9818 12.3101 18.5923L10.8996 19.1026ZM30.4571 19.4943C30.8144 19.2847 30.9341 18.8252 30.7245 18.4679C30.5148 18.1106 30.0553 17.9909 29.698 18.2006L30.4571 19.4943ZM10.202 30.5087L9.82243 29.8618L9.81495 29.8663L10.202 30.5087ZM8.58821 30.4719L8.17228 31.096H8.17228L8.58821 30.4719ZM7.93308 28.9966L7.22781 28.7415C7.21079 28.7885 7.19851 28.8372 7.19118 28.8867L7.93308 28.9966ZM12.3101 19.1026C12.451 18.7131 12.2495 18.2831 11.86 18.1422C11.4705 18.0013 11.0405 18.2028 10.8996 18.5923L12.3101 19.1026ZM30.0776 19.5976C30.4918 19.5976 30.8276 19.2618 30.8276 18.8476C30.8276 18.4334 30.4918 18.0976 30.0776 18.0976V19.5976ZM11.6048 18.0976C11.1906 18.0976 10.8548 18.4334 10.8548 18.8476C10.8548 19.2618 11.1906 19.5976 11.6048 19.5976V18.0976ZM30.4571 18.2006L10.5815 6.53931L9.82246 7.83307L29.698 19.4943L30.4571 18.2006ZM10.589 6.54377C9.84067 6.0929 8.89932 6.11437 8.17228 6.59889L9.00413 7.8471C9.24805 7.68454 9.56387 7.67734 9.81495 7.82861L10.589 6.54377ZM8.17228 6.59889C7.44525 7.08341 7.0631 7.94397 7.19118 8.80822L8.67497 8.58833C8.632 8.29837 8.76021 8.00965 9.00413 7.8471L8.17228 6.59889ZM7.22781 8.95342L10.8996 19.1026L12.3101 18.5923L8.63834 8.44312L7.22781 8.95342ZM29.698 18.2006L9.82246 29.8618L10.5815 31.1556L30.4571 19.4943L29.698 18.2006ZM9.81495 29.8663C9.56387 30.0175 9.24805 30.0103 9.00413 29.8478L8.17228 31.096C8.89932 31.5805 9.84067 31.602 10.589 31.1511L9.81495 29.8663ZM9.00413 29.8478C8.76021 29.6852 8.632 29.3965 8.67497 29.1066L7.19118 28.8867C7.0631 29.7509 7.44525 30.6115 8.17228 31.096L9.00413 29.8478ZM8.63834 29.2518L12.3101 19.1026L10.8996 18.5923L7.22781 28.7415L8.63834 29.2518ZM30.0776 18.0976H11.6048V19.5976H30.0776V18.0976Z" fill="black"/>
</svg>
