<svg width="30" height="35" viewBox="0 0 30 35" fill="none" xmlns="http://www.w3.org/2000/svg">
<path fill-rule="evenodd" clip-rule="evenodd" d="M18.4804 2.49455L23.0262 7.00246L27.4477 11.2382C28.0695 11.8339 28.4211 12.6575 28.4211 13.5186V30C28.4211 31.7441 27.0072 33.1579 25.2632 33.1579H4.73684C2.99279 33.1579 1.57895 31.7441 1.57895 30V4.73684C1.57895 2.99278 2.99278 1.57895 4.73684 1.57895H16.2568C17.0897 1.57895 17.8889 1.90804 18.4804 2.49455ZM19.5922 1.3734L24.1283 5.87171L28.54 10.098C29.4726 10.9915 30 12.227 30 13.5186V30C30 32.6161 27.8792 34.7368 25.2632 34.7368H4.73684C2.12076 34.7368 0 32.6161 0 30V4.73684C0 2.12076 2.12076 0 4.73684 0H16.2568C17.5062 0 18.705 0.493633 19.5922 1.3734ZM5.52632 16.5789C5.0903 16.5789 4.73684 16.9324 4.73684 17.3684C4.73684 17.8044 5.0903 18.1579 5.52632 18.1579L24.4737 18.1579C24.9097 18.1579 25.2632 17.8044 25.2632 17.3684C25.2632 16.9324 24.9097 16.5789 24.4737 16.5789L5.52632 16.5789ZM4.73684 25.2632C4.73684 24.8271 5.0903 24.4737 5.52632 24.4737L24.4737 24.4737C24.9097 24.4737 25.2632 24.8271 25.2632 25.2632C25.2632 25.6992 24.9097 26.0526 24.4737 26.0526L5.52632 26.0526C5.0903 26.0526 4.73684 25.6992 4.73684 25.2632ZM5.52632 8.68421C5.0903 8.68421 4.73684 9.03767 4.73684 9.47368C4.73684 9.9097 5.0903 10.2632 5.52632 10.2632L14.2105 10.2632C14.6465 10.2632 15 9.9097 15 9.47368C15 9.03767 14.6465 8.68421 14.2105 8.68421L5.52632 8.68421Z" fill="url(#paint0_linear_95_252)"/>
<defs>
<linearGradient id="paint0_linear_95_252" x1="5.475" y1="-0.694736" x2="32.8277" y2="25.0897" gradientUnits="userSpaceOnUse">
<stop stop-color="#007369"/>
<stop offset="1" stop-color="white"/>
</linearGradient>
</defs>
</svg>
